<?xml version="1.0" encoding="utf-8"?>
<!-- Generator: Adobe Illustrator 15.0.0, SVG Export Plug-In . SVG Version: 6.00 Build 0)  -->
<!DOCTYPE svg PUBLIC "-//W3C//DTD SVG 1.1//EN" "http://www.w3.org/Graphics/SVG/1.1/DTD/svg11.dtd">
<svg version="1.1" id="Calque_1" xmlns="http://www.w3.org/2000/svg" xmlns:xlink="http://www.w3.org/1999/xlink" x="0px" y="0px"
	 width="133.037px" height="28.476px" viewBox="0 0 133.037 28.476" enable-background="new 0 0 133.037 28.476"
	 xml:space="preserve">
<g>
	<g>
		<path fill="#E5DEDD" d="M0.625,0v26.313c0,1.303,0.471,1.622,1.818,1.622H130.77c0.909,0,1.642-0.017,1.642-1.435V0"/>
		<path fill="#8F1E1C" d="M130.77,28.56H2.443C1.174,28.56,0,28.287,0,26.313V0h1.25v26.313c0,0.859,0.081,0.997,1.193,0.997H130.77
			c0.9,0,1.017,0,1.017-0.81V0h1.25v26.5C133.037,28.56,131.618,28.56,130.77,28.56z"/>
	</g>
</g>
<g>
	<g opacity="0.6">
		<path fill="#8F1E1C" d="M11.1,12.52h0.485v2.324h2.03v0.684h-2.03v4.122c0,0.351,0.03,0.602,0.093,0.752
			c0.061,0.15,0.166,0.273,0.314,0.369c0.147,0.096,0.313,0.144,0.495,0.144c0.433,0,0.911-0.194,1.436-0.581v0.663
			c-0.599,0.406-1.203,0.608-1.815,0.608c-0.347,0-0.661-0.078-0.941-0.232c-0.281-0.155-0.473-0.337-0.575-0.547
			s-0.154-0.574-0.154-1.094v-4.204H9.24v-0.574c0.384-0.086,0.694-0.221,0.93-0.403s0.427-0.419,0.573-0.711
			C10.889,13.547,11.008,13.107,11.1,12.52z"/>
		<path fill="#8F1E1C" d="M14.606,15.821v-0.567c0.332-0.027,0.627-0.082,0.886-0.166c0.259-0.083,0.555-0.22,0.887-0.409h0.511
			v1.292c0.323-0.396,0.699-0.711,1.128-0.943s0.813-0.349,1.155-0.349c0.337,0,0.604,0.08,0.8,0.239s0.294,0.353,0.294,0.581
			c0,0.164-0.065,0.309-0.194,0.434c-0.131,0.125-0.286,0.188-0.469,0.188c-0.082,0-0.152-0.011-0.212-0.034s-0.146-0.073-0.26-0.15
			c-0.251-0.164-0.46-0.246-0.629-0.246c-0.228,0-0.479,0.096-0.752,0.287c-0.347,0.246-0.617,0.488-0.813,0.725v3.151
			c0,0.273,0.015,0.459,0.045,0.557c0.029,0.098,0.078,0.182,0.146,0.253s0.152,0.122,0.253,0.154s0.275,0.048,0.526,0.048h0.226
			v0.574H14.6v-0.574h0.294c0.278,0,0.46-0.025,0.547-0.075c0.118-0.068,0.206-0.163,0.263-0.284
			c0.058-0.121,0.086-0.338,0.086-0.653v-4.033H14.606z"/>
		<path fill="#8F1E1C" d="M24.225,14.68c0.67,0,1.25,0.139,1.74,0.417c0.489,0.278,0.876,0.684,1.158,1.217s0.424,1.142,0.424,1.825
			s-0.145,1.292-0.434,1.825c-0.29,0.533-0.684,0.94-1.184,1.22c-0.498,0.28-1.095,0.42-1.787,0.42
			c-1.103,0-1.932-0.344-2.484-1.032c-0.555-0.688-0.831-1.497-0.831-2.427c0-0.679,0.144-1.282,0.431-1.808
			s0.689-0.934,1.207-1.224C22.981,14.824,23.568,14.68,24.225,14.68z M24.17,15.343c-0.52,0-0.959,0.205-1.319,0.615
			c-0.456,0.51-0.684,1.253-0.684,2.229c0,0.939,0.193,1.654,0.581,2.146c0.351,0.438,0.827,0.656,1.429,0.656
			c0.388,0,0.732-0.103,1.036-0.308c0.303-0.205,0.548-0.532,0.734-0.981s0.28-0.977,0.28-1.583c0-0.592-0.101-1.124-0.301-1.593
			c-0.155-0.374-0.389-0.664-0.7-0.872C24.914,15.446,24.562,15.343,24.17,15.343z"/>
		<path fill="#8F1E1C" d="M28.244,14.844l2.591-0.103v4.402c0,0.387,0.054,0.695,0.161,0.923c0.106,0.228,0.271,0.404,0.492,0.53
			c0.221,0.125,0.479,0.188,0.775,0.188c0.364,0,0.778-0.098,1.24-0.294c0.463-0.196,0.925-0.488,1.385-0.875V16.43
			c0-0.337-0.025-0.558-0.075-0.663s-0.139-0.189-0.267-0.253s-0.328-0.096-0.602-0.096h-0.499v-0.574l2.591-0.103v5.1
			c0,0.328,0.027,0.555,0.082,0.68s0.136,0.214,0.242,0.267c0.107,0.052,0.323,0.079,0.646,0.079h0.212v0.574l-2.27,0.116v-1.265
			c-0.624,0.497-1.169,0.84-1.634,1.029s-0.937,0.284-1.415,0.284c-0.355,0-0.664-0.048-0.927-0.144
			c-0.262-0.096-0.492-0.239-0.689-0.431c-0.199-0.191-0.351-0.421-0.455-0.69s-0.157-0.556-0.157-0.861v-3.11
			c0-0.278-0.025-0.473-0.075-0.584s-0.133-0.201-0.25-0.267c-0.115-0.066-0.274-0.099-0.475-0.099h-0.629V14.844z"/>
		<path fill="#8F1E1C" d="M37.631,14.844h3.13v0.574h-0.191c-0.26,0-0.422,0.009-0.485,0.027c-0.091,0.027-0.159,0.071-0.205,0.13
			s-0.068,0.13-0.068,0.212c0,0.114,0.05,0.298,0.15,0.554l1.563,3.89l1.514-3.89c0.096-0.25,0.144-0.433,0.144-0.547
			c0-0.119-0.046-0.211-0.137-0.277s-0.255-0.099-0.492-0.099h-0.328v-0.574h2.7v0.574c-0.187,0.004-0.343,0.034-0.468,0.089
			c-0.126,0.055-0.224,0.125-0.294,0.212c-0.071,0.086-0.177,0.294-0.318,0.622l-2.183,5.1H40.84l-2.197-5.216
			c-0.092-0.214-0.191-0.389-0.301-0.526c-0.073-0.086-0.17-0.155-0.291-0.205s-0.261-0.075-0.42-0.075V14.844z"/>
		<path fill="#8F1E1C" d="M51.268,19.677l0.438,0.355c-0.333,0.396-0.655,0.711-0.967,0.943c-0.313,0.232-0.607,0.396-0.886,0.489
			s-0.604,0.14-0.978,0.14c-0.67,0-1.239-0.137-1.709-0.41c-0.538-0.314-0.95-0.725-1.237-1.23s-0.431-1.103-0.431-1.791
			c0-0.72,0.139-1.335,0.417-1.846s0.667-0.913,1.165-1.207c0.5-0.294,1.077-0.441,1.733-0.441c0.487,0,0.911,0.076,1.271,0.229
			s0.665,0.382,0.916,0.689c0.251,0.307,0.433,0.658,0.547,1.053c0.063,0.232,0.101,0.532,0.109,0.9h-4.833
			c-0.014,0.224-0.021,0.391-0.021,0.5c0,0.576,0.101,1.088,0.301,1.538c0.2,0.45,0.466,0.781,0.796,0.993
			c0.331,0.212,0.706,0.318,1.125,0.318c0.355,0,0.699-0.083,1.032-0.25S50.794,20.16,51.268,19.677z M50.393,16.915
			c-0.068-0.419-0.165-0.729-0.291-0.93c-0.125-0.201-0.303-0.36-0.533-0.479c-0.229-0.119-0.488-0.178-0.775-0.178
			s-0.556,0.059-0.807,0.178s-0.459,0.283-0.625,0.492c-0.167,0.209-0.312,0.515-0.435,0.916H50.393z"/>
		<path fill="#8F1E1C" d="M57.099,12.554v-0.567c0.619-0.045,1.223-0.237,1.811-0.574h0.506v8.415c0,0.355,0.023,0.579,0.068,0.67
			c0.061,0.127,0.146,0.221,0.26,0.28c0.115,0.059,0.334,0.089,0.656,0.089h0.219v0.574h-3.52v-0.574h0.355
			c0.223,0,0.391-0.034,0.502-0.102s0.191-0.161,0.238-0.278c0.049-0.118,0.072-0.353,0.072-0.707v-7.226H57.099z"/>
		<path fill="#8F1E1C" d="M67.222,19.677l0.438,0.355c-0.332,0.396-0.654,0.711-0.967,0.943s-0.607,0.396-0.885,0.489
			c-0.279,0.093-0.604,0.14-0.979,0.14c-0.67,0-1.238-0.137-1.709-0.41c-0.537-0.314-0.949-0.725-1.236-1.23
			s-0.432-1.103-0.432-1.791c0-0.72,0.139-1.335,0.418-1.846c0.277-0.51,0.666-0.913,1.164-1.207c0.5-0.294,1.078-0.441,1.734-0.441
			c0.486,0,0.91,0.076,1.271,0.229c0.359,0.152,0.664,0.382,0.916,0.689c0.25,0.307,0.432,0.658,0.547,1.053
			c0.063,0.232,0.1,0.532,0.109,0.9h-4.834c-0.014,0.224-0.02,0.391-0.02,0.5c0,0.576,0.1,1.088,0.301,1.538
			c0.199,0.45,0.465,0.781,0.795,0.993c0.332,0.212,0.707,0.318,1.125,0.318c0.355,0,0.699-0.083,1.033-0.25
			C66.345,20.484,66.75,20.16,67.222,19.677z M66.347,16.915c-0.068-0.419-0.164-0.729-0.291-0.93
			c-0.125-0.201-0.303-0.36-0.533-0.479c-0.229-0.119-0.488-0.178-0.775-0.178s-0.555,0.059-0.807,0.178
			c-0.25,0.119-0.459,0.283-0.625,0.492s-0.311,0.515-0.434,0.916H66.347z"/>
		<path fill="#8F1E1C" d="M73.136,15.821v-0.567c0.404-0.045,0.709-0.1,0.908-0.164c0.201-0.064,0.49-0.201,0.869-0.41h0.492v1.299
			c0.6-0.506,1.113-0.849,1.539-1.029s0.857-0.27,1.293-0.27c0.373,0,0.703,0.063,0.99,0.188s0.52,0.295,0.699,0.509
			s0.301,0.458,0.359,0.731c0.035,0.168,0.055,0.424,0.055,0.766v3.008c0,0.36,0.025,0.591,0.078,0.694s0.135,0.177,0.25,0.222
			c0.113,0.045,0.395,0.068,0.84,0.068v0.574h-3.514v-0.574h0.191c0.328,0,0.553-0.03,0.67-0.089
			c0.119-0.059,0.205-0.146,0.256-0.26c0.053-0.114,0.08-0.346,0.08-0.697v-2.516c0-0.52-0.043-0.879-0.127-1.08
			s-0.229-0.363-0.432-0.489c-0.201-0.125-0.459-0.188-0.768-0.188c-0.369,0-0.764,0.095-1.184,0.284
			c-0.418,0.189-0.824,0.468-1.217,0.837v3.151c0,0.355,0.027,0.592,0.078,0.711c0.053,0.119,0.139,0.208,0.258,0.267
			c0.082,0.045,0.301,0.068,0.656,0.068h0.197v0.574h-3.527v-0.574H73.3c0.34,0,0.57-0.028,0.695-0.085
			c0.123-0.057,0.211-0.158,0.262-0.304c0.027-0.073,0.041-0.324,0.041-0.752v-3.903H73.136z"/>
		<path fill="#8F1E1C" d="M85.824,14.68c0.67,0,1.25,0.139,1.738,0.417c0.49,0.278,0.877,0.684,1.16,1.217
			c0.281,0.533,0.424,1.142,0.424,1.825s-0.145,1.292-0.436,1.825c-0.289,0.533-0.684,0.94-1.182,1.22
			c-0.5,0.28-1.096,0.42-1.787,0.42c-1.104,0-1.932-0.344-2.486-1.032c-0.553-0.688-0.83-1.497-0.83-2.427
			c0-0.679,0.145-1.282,0.432-1.808s0.689-0.934,1.205-1.224C84.58,14.824,85.167,14.68,85.824,14.68z M85.769,15.343
			c-0.52,0-0.959,0.205-1.32,0.615c-0.455,0.51-0.684,1.253-0.684,2.229c0,0.939,0.193,1.654,0.582,2.146
			c0.35,0.438,0.826,0.656,1.428,0.656c0.389,0,0.732-0.103,1.035-0.308c0.305-0.205,0.549-0.532,0.736-0.981
			c0.186-0.449,0.279-0.977,0.279-1.583c0-0.592-0.1-1.124-0.301-1.593c-0.154-0.374-0.389-0.664-0.701-0.872
			C86.513,15.446,86.16,15.343,85.769,15.343z"/>
		<path fill="#8F1E1C" d="M90.191,15.835v-0.581c0.344-0.032,0.643-0.089,0.898-0.169s0.549-0.216,0.877-0.405h0.508v1.148
			c0.52-0.41,0.926-0.686,1.217-0.827c0.447-0.214,0.873-0.321,1.279-0.321c0.277,0,0.549,0.051,0.816,0.154
			c0.266,0.103,0.48,0.229,0.643,0.379s0.299,0.355,0.414,0.615c0.479-0.424,0.922-0.721,1.328-0.892
			c0.408-0.171,0.822-0.256,1.242-0.256c0.4,0,0.754,0.083,1.063,0.25c0.307,0.167,0.531,0.375,0.67,0.625s0.209,0.618,0.209,1.101
			v3.172c0,0.333,0.006,0.526,0.02,0.581c0.023,0.086,0.072,0.168,0.146,0.246s0.16,0.132,0.254,0.164
			c0.096,0.032,0.273,0.048,0.531,0.048h0.217v0.574h-3.424v-0.574c0.391-0.004,0.645-0.033,0.762-0.085
			c0.115-0.052,0.203-0.138,0.26-0.256s0.086-0.351,0.086-0.697v-3.015c0-0.383-0.035-0.647-0.104-0.793s-0.189-0.268-0.365-0.366
			c-0.178-0.098-0.395-0.147-0.654-0.147c-0.324,0-0.666,0.086-1.021,0.26c-0.475,0.237-0.85,0.503-1.123,0.8v3.261
			c0,0.314,0.014,0.521,0.043,0.619c0.031,0.098,0.08,0.18,0.15,0.246c0.072,0.066,0.154,0.112,0.246,0.137
			c0.094,0.025,0.32,0.038,0.682,0.038v0.574h-3.363v-0.574h0.191c0.268,0,0.459-0.032,0.57-0.096s0.199-0.162,0.264-0.294
			c0.045-0.105,0.068-0.321,0.068-0.649v-2.912c0-0.428-0.033-0.718-0.1-0.868s-0.193-0.278-0.381-0.383s-0.406-0.157-0.656-0.157
			c-0.297,0-0.598,0.073-0.898,0.219c-0.447,0.214-0.859,0.495-1.232,0.841v3.514c0,0.209,0.027,0.363,0.084,0.461
			c0.059,0.098,0.148,0.177,0.271,0.236s0.291,0.089,0.506,0.089h0.252v0.574h-3.432v-0.574h0.184c0.313,0,0.52-0.025,0.619-0.075
			c0.145-0.068,0.248-0.178,0.313-0.328c0.035-0.082,0.055-0.294,0.055-0.636v-3.992H90.191z"/>
		<path fill="#8F1E1C" d="M103.248,12.554v-0.567c0.303-0.023,0.594-0.078,0.875-0.164s0.596-0.223,0.941-0.41h0.502v4.17
			c0.4-0.301,0.813-0.526,1.236-0.677s0.857-0.226,1.299-0.226c0.512,0,0.982,0.137,1.416,0.41c0.432,0.273,0.773,0.66,1.021,1.159
			s0.373,1.088,0.373,1.767c0,1.066-0.313,1.944-0.938,2.632c-0.578,0.638-1.313,0.957-2.201,0.957c-0.533,0-1.01-0.112-1.428-0.335
			c-0.311-0.164-0.611-0.417-0.902-0.759l-0.377,0.93h-0.635v-8.887H103.248z M105.566,16.259v2.632
			c0,0.415,0.029,0.705,0.088,0.872c0.061,0.167,0.182,0.337,0.365,0.513c0.186,0.175,0.402,0.314,0.65,0.417
			s0.504,0.154,0.77,0.154c0.404,0,0.773-0.107,1.107-0.321c0.332-0.214,0.594-0.531,0.785-0.95s0.287-0.923,0.287-1.511
			c0-0.825-0.203-1.486-0.607-1.982c-0.324-0.41-0.777-0.615-1.361-0.615c-0.301,0-0.605,0.056-0.916,0.167
			C106.425,15.745,106.035,15.954,105.566,16.259z"/>
		<path fill="#8F1E1C" d="M112.046,15.821v-0.567c0.332-0.027,0.627-0.082,0.885-0.166c0.26-0.083,0.555-0.22,0.887-0.409h0.512
			v1.292c0.322-0.396,0.699-0.711,1.127-0.943c0.43-0.232,0.814-0.349,1.156-0.349c0.336,0,0.604,0.08,0.799,0.239
			c0.197,0.16,0.295,0.353,0.295,0.581c0,0.164-0.066,0.309-0.195,0.434c-0.131,0.125-0.285,0.188-0.469,0.188
			c-0.082,0-0.152-0.011-0.211-0.034c-0.061-0.023-0.146-0.073-0.26-0.15c-0.252-0.164-0.461-0.246-0.629-0.246
			c-0.229,0-0.479,0.096-0.752,0.287c-0.348,0.246-0.617,0.488-0.814,0.725v3.151c0,0.273,0.016,0.459,0.045,0.557
			s0.078,0.182,0.146,0.253s0.152,0.122,0.254,0.154c0.1,0.032,0.275,0.048,0.525,0.048h0.227v0.574h-3.535v-0.574h0.295
			c0.277,0,0.459-0.025,0.547-0.075c0.117-0.068,0.205-0.163,0.262-0.284c0.059-0.121,0.086-0.338,0.086-0.653v-4.033H112.046z"/>
		<path fill="#8F1E1C" d="M124.064,19.677l0.438,0.355c-0.334,0.396-0.656,0.711-0.969,0.943c-0.311,0.232-0.605,0.396-0.885,0.489
			c-0.277,0.093-0.604,0.14-0.977,0.14c-0.67,0-1.24-0.137-1.709-0.41c-0.539-0.314-0.951-0.725-1.238-1.23s-0.43-1.103-0.43-1.791
			c0-0.72,0.139-1.335,0.416-1.846c0.279-0.51,0.666-0.913,1.166-1.207c0.498-0.294,1.076-0.441,1.732-0.441
			c0.488,0,0.912,0.076,1.271,0.229c0.361,0.152,0.666,0.382,0.916,0.689c0.252,0.307,0.434,0.658,0.547,1.053
			c0.064,0.232,0.102,0.532,0.109,0.9h-4.832c-0.014,0.224-0.021,0.391-0.021,0.5c0,0.576,0.102,1.088,0.301,1.538
			c0.201,0.45,0.467,0.781,0.797,0.993s0.705,0.318,1.125,0.318c0.355,0,0.699-0.083,1.031-0.25
			C123.187,20.484,123.589,20.16,124.064,19.677z M123.189,16.915c-0.068-0.419-0.166-0.729-0.291-0.93s-0.303-0.36-0.533-0.479
			s-0.488-0.178-0.775-0.178s-0.557,0.059-0.807,0.178c-0.252,0.119-0.459,0.283-0.627,0.492c-0.166,0.209-0.311,0.515-0.434,0.916
			H123.189z"/>
	</g>
	<g>
		<path fill="#1C1411" d="M10.787,12.09h0.485v2.324h2.03v0.684h-2.03v4.122c0,0.351,0.03,0.602,0.093,0.752
			c0.061,0.15,0.166,0.273,0.314,0.369c0.147,0.096,0.313,0.144,0.495,0.144c0.433,0,0.911-0.194,1.436-0.581v0.663
			c-0.599,0.406-1.203,0.608-1.815,0.608c-0.347,0-0.661-0.078-0.941-0.232c-0.281-0.155-0.473-0.337-0.575-0.547
			s-0.154-0.574-0.154-1.094v-4.204H8.928v-0.574c0.384-0.086,0.694-0.221,0.93-0.403s0.427-0.419,0.573-0.711
			C10.576,13.118,10.695,12.678,10.787,12.09z"/>
		<path fill="#1C1411" d="M14.294,15.392v-0.567c0.332-0.027,0.627-0.082,0.886-0.166c0.259-0.083,0.555-0.22,0.887-0.409h0.511
			v1.292c0.323-0.396,0.699-0.711,1.128-0.943s0.813-0.349,1.155-0.349c0.337,0,0.604,0.08,0.8,0.239s0.294,0.353,0.294,0.581
			c0,0.164-0.065,0.309-0.194,0.434c-0.131,0.125-0.286,0.188-0.469,0.188c-0.082,0-0.152-0.011-0.212-0.034s-0.146-0.073-0.26-0.15
			c-0.251-0.164-0.46-0.246-0.629-0.246c-0.228,0-0.479,0.096-0.752,0.287c-0.347,0.246-0.617,0.488-0.813,0.725v3.151
			c0,0.273,0.015,0.459,0.045,0.557c0.029,0.098,0.078,0.182,0.146,0.253s0.152,0.122,0.253,0.154s0.275,0.048,0.526,0.048h0.226
			v0.574h-3.534v-0.574h0.294c0.278,0,0.46-0.025,0.547-0.075c0.118-0.068,0.206-0.163,0.263-0.284
			c0.058-0.121,0.086-0.338,0.086-0.653v-4.033H14.294z"/>
		<path fill="#1C1411" d="M23.912,14.25c0.67,0,1.25,0.139,1.74,0.417c0.489,0.278,0.876,0.684,1.158,1.217s0.424,1.142,0.424,1.825
			s-0.145,1.292-0.434,1.825c-0.29,0.533-0.684,0.94-1.184,1.22c-0.498,0.28-1.095,0.42-1.787,0.42
			c-1.103,0-1.932-0.344-2.484-1.032c-0.555-0.688-0.831-1.497-0.831-2.427c0-0.679,0.144-1.282,0.431-1.808
			s0.689-0.934,1.207-1.224C22.669,14.395,23.256,14.25,23.912,14.25z M23.857,14.913c-0.52,0-0.959,0.205-1.319,0.615
			c-0.456,0.51-0.684,1.253-0.684,2.229c0,0.939,0.193,1.654,0.581,2.146c0.351,0.438,0.827,0.656,1.429,0.656
			c0.388,0,0.732-0.103,1.036-0.308c0.303-0.205,0.548-0.532,0.734-0.981s0.28-0.977,0.28-1.583c0-0.592-0.101-1.124-0.301-1.593
			c-0.155-0.374-0.389-0.664-0.7-0.872C24.602,15.017,24.249,14.913,23.857,14.913z"/>
		<path fill="#1C1411" d="M27.932,14.414l2.591-0.103v4.402c0,0.387,0.054,0.695,0.161,0.923c0.106,0.228,0.271,0.404,0.492,0.53
			c0.221,0.125,0.479,0.188,0.775,0.188c0.364,0,0.778-0.098,1.24-0.294c0.463-0.196,0.925-0.488,1.385-0.875V16
			c0-0.337-0.025-0.558-0.075-0.663s-0.139-0.189-0.267-0.253s-0.328-0.096-0.602-0.096h-0.499v-0.574l2.591-0.103v5.1
			c0,0.328,0.027,0.555,0.082,0.68s0.136,0.214,0.242,0.267c0.107,0.052,0.323,0.079,0.646,0.079h0.212v0.574l-2.27,0.116v-1.265
			c-0.624,0.497-1.169,0.84-1.634,1.029s-0.937,0.284-1.415,0.284c-0.355,0-0.664-0.048-0.927-0.144
			c-0.262-0.096-0.492-0.239-0.689-0.431c-0.199-0.191-0.351-0.421-0.455-0.69s-0.157-0.556-0.157-0.861v-3.11
			c0-0.278-0.025-0.473-0.075-0.584s-0.133-0.201-0.25-0.267c-0.115-0.066-0.274-0.099-0.475-0.099h-0.629V14.414z"/>
		<path fill="#1C1411" d="M37.318,14.414h3.13v0.574h-0.191c-0.26,0-0.422,0.009-0.485,0.027c-0.091,0.027-0.159,0.071-0.205,0.13
			s-0.068,0.13-0.068,0.212c0,0.114,0.05,0.298,0.15,0.554l1.563,3.89l1.514-3.89c0.096-0.25,0.144-0.433,0.144-0.547
			c0-0.119-0.046-0.211-0.137-0.277s-0.255-0.099-0.492-0.099h-0.328v-0.574h2.7v0.574c-0.187,0.004-0.343,0.034-0.468,0.089
			c-0.126,0.055-0.224,0.125-0.294,0.212c-0.071,0.086-0.177,0.294-0.318,0.622l-2.183,5.1h-0.821l-2.197-5.216
			c-0.092-0.214-0.191-0.389-0.301-0.526c-0.073-0.086-0.17-0.155-0.291-0.205s-0.261-0.075-0.42-0.075V14.414z"/>
		<path fill="#1C1411" d="M50.955,19.247l0.438,0.355c-0.333,0.396-0.655,0.711-0.967,0.943c-0.313,0.232-0.607,0.396-0.886,0.489
			s-0.604,0.14-0.978,0.14c-0.67,0-1.239-0.137-1.709-0.41c-0.538-0.314-0.95-0.725-1.237-1.23s-0.431-1.103-0.431-1.791
			c0-0.72,0.139-1.335,0.417-1.846s0.667-0.913,1.165-1.207c0.5-0.294,1.077-0.441,1.733-0.441c0.487,0,0.911,0.076,1.271,0.229
			s0.665,0.382,0.916,0.689c0.251,0.307,0.433,0.658,0.547,1.053c0.063,0.232,0.101,0.532,0.109,0.9h-4.833
			c-0.014,0.224-0.021,0.391-0.021,0.5c0,0.576,0.101,1.088,0.301,1.538c0.2,0.45,0.466,0.781,0.796,0.993
			c0.331,0.212,0.706,0.318,1.125,0.318c0.355,0,0.699-0.083,1.032-0.25S50.481,19.73,50.955,19.247z M50.08,16.485
			c-0.068-0.419-0.165-0.729-0.291-0.93c-0.125-0.201-0.303-0.36-0.533-0.479c-0.229-0.119-0.488-0.178-0.775-0.178
			s-0.556,0.059-0.807,0.178s-0.459,0.283-0.625,0.492c-0.167,0.209-0.312,0.515-0.435,0.916H50.08z"/>
		<path fill="#1C1411" d="M56.787,12.124v-0.567c0.619-0.045,1.223-0.237,1.811-0.574h0.506v8.415c0,0.355,0.023,0.579,0.068,0.67
			c0.061,0.127,0.146,0.221,0.26,0.28c0.115,0.059,0.334,0.089,0.656,0.089h0.219v0.574h-3.52v-0.574h0.355
			c0.223,0,0.391-0.034,0.502-0.102s0.191-0.161,0.238-0.278c0.049-0.118,0.072-0.353,0.072-0.707v-7.226H56.787z"/>
		<path fill="#1C1411" d="M66.91,19.247l0.438,0.355c-0.332,0.396-0.654,0.711-0.967,0.943s-0.607,0.396-0.885,0.489
			c-0.279,0.093-0.604,0.14-0.979,0.14c-0.67,0-1.238-0.137-1.709-0.41c-0.537-0.314-0.949-0.725-1.236-1.23
			s-0.432-1.103-0.432-1.791c0-0.72,0.139-1.335,0.418-1.846c0.277-0.51,0.666-0.913,1.164-1.207c0.5-0.294,1.078-0.441,1.734-0.441
			c0.486,0,0.91,0.076,1.271,0.229c0.359,0.152,0.664,0.382,0.916,0.689c0.25,0.307,0.432,0.658,0.547,1.053
			c0.063,0.232,0.1,0.532,0.109,0.9h-4.834c-0.014,0.224-0.02,0.391-0.02,0.5c0,0.576,0.1,1.088,0.301,1.538
			c0.199,0.45,0.465,0.781,0.795,0.993c0.332,0.212,0.707,0.318,1.125,0.318c0.355,0,0.699-0.083,1.033-0.25
			C66.033,20.055,66.437,19.73,66.91,19.247z M66.035,16.485c-0.068-0.419-0.164-0.729-0.291-0.93
			c-0.125-0.201-0.303-0.36-0.533-0.479c-0.229-0.119-0.488-0.178-0.775-0.178s-0.555,0.059-0.807,0.178
			c-0.25,0.119-0.459,0.283-0.625,0.492s-0.311,0.515-0.434,0.916H66.035z"/>
		<path fill="#1C1411" d="M72.824,15.392v-0.567c0.404-0.045,0.709-0.1,0.908-0.164c0.201-0.064,0.49-0.201,0.869-0.41h0.492v1.299
			c0.6-0.506,1.113-0.849,1.539-1.029s0.857-0.27,1.293-0.27c0.373,0,0.703,0.063,0.99,0.188s0.52,0.295,0.699,0.509
			s0.301,0.458,0.359,0.731c0.035,0.168,0.055,0.424,0.055,0.766v3.008c0,0.36,0.025,0.591,0.078,0.694s0.135,0.177,0.25,0.222
			c0.113,0.045,0.395,0.068,0.84,0.068v0.574h-3.514v-0.574h0.191c0.328,0,0.553-0.03,0.67-0.089
			c0.119-0.059,0.205-0.146,0.256-0.26c0.053-0.114,0.08-0.346,0.08-0.697v-2.516c0-0.52-0.043-0.879-0.127-1.08
			s-0.229-0.363-0.432-0.489c-0.201-0.125-0.459-0.188-0.768-0.188c-0.369,0-0.764,0.095-1.184,0.284
			c-0.418,0.189-0.824,0.468-1.217,0.837v3.151c0,0.355,0.027,0.592,0.078,0.711c0.053,0.119,0.139,0.208,0.258,0.267
			c0.082,0.045,0.301,0.068,0.656,0.068h0.197v0.574h-3.527v-0.574h0.172c0.34,0,0.57-0.028,0.695-0.085
			c0.123-0.057,0.211-0.158,0.262-0.304c0.027-0.073,0.041-0.324,0.041-0.752v-3.903H72.824z"/>
		<path fill="#1C1411" d="M85.511,14.25c0.67,0,1.25,0.139,1.738,0.417c0.49,0.278,0.877,0.684,1.16,1.217
			c0.281,0.533,0.424,1.142,0.424,1.825s-0.145,1.292-0.436,1.825c-0.289,0.533-0.684,0.94-1.182,1.22
			c-0.5,0.28-1.096,0.42-1.787,0.42c-1.104,0-1.932-0.344-2.486-1.032c-0.553-0.688-0.83-1.497-0.83-2.427
			c0-0.679,0.145-1.282,0.432-1.808s0.689-0.934,1.205-1.224C84.267,14.395,84.855,14.25,85.511,14.25z M85.457,14.913
			c-0.52,0-0.959,0.205-1.32,0.615c-0.455,0.51-0.684,1.253-0.684,2.229c0,0.939,0.193,1.654,0.582,2.146
			c0.35,0.438,0.826,0.656,1.428,0.656c0.389,0,0.732-0.103,1.035-0.308c0.305-0.205,0.549-0.532,0.736-0.981
			c0.186-0.449,0.279-0.977,0.279-1.583c0-0.592-0.1-1.124-0.301-1.593c-0.154-0.374-0.389-0.664-0.701-0.872
			C86.201,15.017,85.847,14.913,85.457,14.913z"/>
		<path fill="#1C1411" d="M89.878,15.405v-0.581c0.344-0.032,0.643-0.089,0.898-0.169s0.549-0.216,0.877-0.405h0.508v1.148
			c0.52-0.41,0.926-0.686,1.217-0.827c0.447-0.214,0.873-0.321,1.279-0.321c0.277,0,0.549,0.051,0.816,0.154
			c0.266,0.103,0.48,0.229,0.643,0.379s0.299,0.355,0.414,0.615c0.479-0.424,0.922-0.721,1.328-0.892
			c0.408-0.171,0.822-0.256,1.242-0.256c0.4,0,0.754,0.083,1.063,0.25c0.307,0.167,0.531,0.375,0.67,0.625s0.209,0.618,0.209,1.101
			v3.172c0,0.333,0.006,0.526,0.02,0.581c0.023,0.086,0.072,0.168,0.146,0.246s0.16,0.132,0.254,0.164
			c0.096,0.032,0.273,0.048,0.531,0.048h0.217v0.574h-3.424v-0.574c0.391-0.004,0.645-0.033,0.762-0.085
			c0.115-0.052,0.203-0.138,0.26-0.256s0.086-0.351,0.086-0.697v-3.015c0-0.383-0.035-0.647-0.104-0.793s-0.189-0.268-0.365-0.366
			c-0.178-0.098-0.395-0.147-0.654-0.147c-0.324,0-0.666,0.086-1.021,0.26c-0.475,0.237-0.85,0.503-1.123,0.8v3.261
			c0,0.314,0.014,0.521,0.043,0.619c0.031,0.098,0.08,0.18,0.15,0.246c0.072,0.066,0.154,0.112,0.246,0.137
			c0.094,0.025,0.32,0.038,0.682,0.038v0.574h-3.363v-0.574h0.191c0.268,0,0.459-0.032,0.57-0.096s0.199-0.162,0.264-0.294
			c0.045-0.105,0.068-0.321,0.068-0.649v-2.912c0-0.428-0.033-0.718-0.1-0.868s-0.193-0.278-0.381-0.383s-0.406-0.157-0.656-0.157
			c-0.297,0-0.598,0.073-0.898,0.219c-0.447,0.214-0.859,0.495-1.232,0.841v3.514c0,0.209,0.027,0.363,0.084,0.461
			c0.059,0.098,0.148,0.177,0.271,0.236s0.291,0.089,0.506,0.089h0.252v0.574h-3.432v-0.574h0.184c0.313,0,0.52-0.025,0.619-0.075
			c0.145-0.068,0.248-0.178,0.313-0.328c0.035-0.082,0.055-0.294,0.055-0.636v-3.992H89.878z"/>
		<path fill="#1C1411" d="M102.935,12.124v-0.567c0.303-0.023,0.594-0.078,0.875-0.164s0.596-0.223,0.941-0.41h0.502v4.17
			c0.4-0.301,0.813-0.526,1.236-0.677s0.857-0.226,1.299-0.226c0.512,0,0.982,0.137,1.416,0.41c0.432,0.273,0.773,0.66,1.021,1.159
			s0.373,1.088,0.373,1.767c0,1.066-0.313,1.944-0.938,2.632c-0.578,0.638-1.313,0.957-2.201,0.957c-0.533,0-1.01-0.112-1.428-0.335
			c-0.311-0.164-0.611-0.417-0.902-0.759l-0.377,0.93h-0.635v-8.887H102.935z M105.253,15.829v2.632
			c0,0.415,0.029,0.705,0.088,0.872c0.061,0.167,0.182,0.337,0.365,0.513c0.186,0.175,0.402,0.314,0.65,0.417
			s0.504,0.154,0.77,0.154c0.404,0,0.773-0.107,1.107-0.321c0.332-0.214,0.594-0.531,0.785-0.95s0.287-0.923,0.287-1.511
			c0-0.825-0.203-1.486-0.607-1.982c-0.324-0.41-0.777-0.615-1.361-0.615c-0.301,0-0.605,0.056-0.916,0.167
			C106.113,15.315,105.722,15.524,105.253,15.829z"/>
		<path fill="#1C1411" d="M111.734,15.392v-0.567c0.332-0.027,0.627-0.082,0.885-0.166c0.26-0.083,0.555-0.22,0.887-0.409h0.512
			v1.292c0.322-0.396,0.699-0.711,1.127-0.943c0.43-0.232,0.814-0.349,1.156-0.349c0.336,0,0.604,0.08,0.799,0.239
			c0.197,0.16,0.295,0.353,0.295,0.581c0,0.164-0.066,0.309-0.195,0.434c-0.131,0.125-0.285,0.188-0.469,0.188
			c-0.082,0-0.152-0.011-0.211-0.034c-0.061-0.023-0.146-0.073-0.26-0.15c-0.252-0.164-0.461-0.246-0.629-0.246
			c-0.229,0-0.479,0.096-0.752,0.287c-0.348,0.246-0.617,0.488-0.814,0.725v3.151c0,0.273,0.016,0.459,0.045,0.557
			s0.078,0.182,0.146,0.253s0.152,0.122,0.254,0.154c0.1,0.032,0.275,0.048,0.525,0.048h0.227v0.574h-3.535v-0.574h0.295
			c0.277,0,0.459-0.025,0.547-0.075c0.117-0.068,0.205-0.163,0.262-0.284c0.059-0.121,0.086-0.338,0.086-0.653v-4.033H111.734z"/>
		<path fill="#1C1411" d="M123.751,19.247l0.438,0.355c-0.334,0.396-0.656,0.711-0.969,0.943c-0.311,0.232-0.605,0.396-0.885,0.489
			c-0.277,0.093-0.604,0.14-0.977,0.14c-0.67,0-1.24-0.137-1.709-0.41c-0.539-0.314-0.951-0.725-1.238-1.23s-0.43-1.103-0.43-1.791
			c0-0.72,0.139-1.335,0.416-1.846c0.279-0.51,0.666-0.913,1.166-1.207c0.498-0.294,1.076-0.441,1.732-0.441
			c0.488,0,0.912,0.076,1.271,0.229c0.361,0.152,0.666,0.382,0.916,0.689c0.252,0.307,0.434,0.658,0.547,1.053
			c0.064,0.232,0.102,0.532,0.109,0.9h-4.832c-0.014,0.224-0.021,0.391-0.021,0.5c0,0.576,0.102,1.088,0.301,1.538
			c0.201,0.45,0.467,0.781,0.797,0.993s0.705,0.318,1.125,0.318c0.355,0,0.699-0.083,1.031-0.25
			C122.875,20.055,123.277,19.73,123.751,19.247z M122.876,16.485c-0.068-0.419-0.166-0.729-0.291-0.93s-0.303-0.36-0.533-0.479
			s-0.488-0.178-0.775-0.178s-0.557,0.059-0.807,0.178c-0.252,0.119-0.459,0.283-0.627,0.492c-0.166,0.209-0.311,0.515-0.434,0.916
			H122.876z"/>
	</g>
</g>
</svg>
