<?xml version="1.0" encoding="utf-8"?>
<!-- Generator: Adobe Illustrator 15.0.0, SVG Export Plug-In . SVG Version: 6.00 Build 0)  -->
<!DOCTYPE svg PUBLIC "-//W3C//DTD SVG 1.1//EN" "http://www.w3.org/Graphics/SVG/1.1/DTD/svg11.dtd">
<svg version="1.1" id="Calque_1" xmlns="http://www.w3.org/2000/svg" xmlns:xlink="http://www.w3.org/1999/xlink" x="0px" y="0px"
	 width="82.528px" height="28.476px" viewBox="0 0 82.528 28.476" enable-background="new 0 0 82.528 28.476" xml:space="preserve">
<g>
	<g>
		<path fill="#E5DEDD" d="M0.625,0v26.229c0,1.303,0.546,1.622,2.113,1.622h77.256c1.056,0,1.909-0.017,1.909-1.435V0"/>
		<path fill="#8F1E1C" d="M79.995,28.476H2.738C1.414,28.476,0,28.302,0,26.229V0h1.25v26.229c0,0.726,0,0.997,1.488,0.997h77.256
			c1.176,0,1.284-0.068,1.284-0.81V0h1.25v26.417C82.528,28.476,80.942,28.476,79.995,28.476z"/>
	</g>
</g>
<g>
	<g opacity="0.6">
		<path fill="#8F1E1C" d="M15.245,19.206l0.438,0.355c-0.856,1.144-1.885,1.716-3.083,1.716c-0.935,0-1.723-0.333-2.365-0.998
			s-0.964-1.493-0.964-2.481c0-0.661,0.149-1.254,0.447-1.781c0.299-0.526,0.714-0.936,1.244-1.227
			c0.531-0.292,1.141-0.438,1.829-0.438c0.784,0,1.438,0.192,1.962,0.578s0.786,0.773,0.786,1.166c0,0.209-0.062,0.372-0.185,0.485
			s-0.262,0.171-0.417,0.171c-0.082,0-0.162-0.021-0.239-0.062s-0.157-0.107-0.239-0.198c-0.036-0.041-0.103-0.168-0.198-0.383
			c-0.123-0.264-0.219-0.442-0.287-0.533c-0.142-0.182-0.315-0.326-0.523-0.431c-0.207-0.105-0.438-0.157-0.693-0.157
			c-0.388,0-0.746,0.107-1.076,0.321c-0.331,0.214-0.593,0.53-0.787,0.947c-0.193,0.417-0.29,0.915-0.29,1.494
			c0,0.898,0.239,1.611,0.718,2.14c0.415,0.456,0.909,0.684,1.483,0.684c0.265,0,0.532-0.044,0.804-0.133
			c0.271-0.089,0.527-0.22,0.769-0.393C14.555,19.923,14.844,19.643,15.245,19.206z"/>
		<path fill="#8F1E1C" d="M19.935,14.352c0.67,0,1.25,0.139,1.74,0.417c0.489,0.278,0.876,0.684,1.158,1.217
			s0.424,1.142,0.424,1.825s-0.145,1.292-0.434,1.825c-0.29,0.533-0.684,0.94-1.184,1.22c-0.498,0.28-1.095,0.42-1.787,0.42
			c-1.103,0-1.932-0.344-2.484-1.032c-0.555-0.688-0.831-1.497-0.831-2.427c0-0.679,0.144-1.282,0.431-1.808
			s0.689-0.934,1.207-1.224C18.691,14.497,19.278,14.352,19.935,14.352z M19.88,15.015c-0.52,0-0.959,0.205-1.319,0.615
			c-0.456,0.51-0.684,1.253-0.684,2.229c0,0.939,0.193,1.654,0.581,2.146c0.351,0.438,0.827,0.656,1.429,0.656
			c0.388,0,0.732-0.103,1.036-0.308c0.303-0.205,0.548-0.532,0.734-0.981s0.28-0.977,0.28-1.583c0-0.592-0.101-1.124-0.301-1.593
			c-0.155-0.374-0.389-0.664-0.7-0.872C20.624,15.119,20.271,15.015,19.88,15.015z"/>
		<path fill="#8F1E1C" d="M24.303,15.507v-0.581c0.343-0.032,0.643-0.089,0.898-0.169s0.548-0.216,0.877-0.405h0.508V15.5
			c0.52-0.41,0.925-0.686,1.217-0.827c0.446-0.214,0.873-0.321,1.278-0.321c0.278,0,0.551,0.051,0.816,0.154
			c0.268,0.103,0.481,0.229,0.643,0.379c0.162,0.15,0.3,0.355,0.414,0.615c0.479-0.424,0.922-0.721,1.33-0.892
			c0.407-0.171,0.821-0.256,1.24-0.256c0.401,0,0.756,0.083,1.063,0.25c0.309,0.167,0.531,0.375,0.67,0.625
			c0.14,0.25,0.209,0.618,0.209,1.101V19.5c0,0.333,0.007,0.526,0.021,0.581c0.022,0.086,0.071,0.168,0.146,0.246
			c0.074,0.078,0.159,0.132,0.254,0.164c0.096,0.032,0.272,0.048,0.53,0.048h0.218v0.574H33.21v-0.574
			c0.392-0.004,0.646-0.033,0.762-0.085c0.117-0.052,0.203-0.138,0.26-0.256c0.058-0.119,0.086-0.351,0.086-0.697v-3.015
			c0-0.383-0.034-0.647-0.103-0.793s-0.19-0.268-0.366-0.366c-0.177-0.098-0.395-0.147-0.654-0.147c-0.324,0-0.665,0.086-1.021,0.26
			c-0.475,0.237-0.849,0.503-1.123,0.8V19.5c0,0.314,0.015,0.521,0.045,0.619c0.029,0.098,0.079,0.18,0.15,0.246
			c0.07,0.066,0.152,0.112,0.246,0.137c0.093,0.025,0.319,0.038,0.68,0.038v0.574h-3.363v-0.574h0.191
			c0.269,0,0.459-0.032,0.57-0.096c0.112-0.064,0.2-0.162,0.264-0.294c0.046-0.105,0.068-0.321,0.068-0.649v-2.912
			c0-0.428-0.033-0.718-0.1-0.868s-0.192-0.278-0.38-0.383s-0.406-0.157-0.657-0.157c-0.297,0-0.597,0.073-0.897,0.219
			c-0.448,0.214-0.859,0.495-1.233,0.841v3.514c0,0.209,0.028,0.363,0.086,0.461c0.057,0.098,0.146,0.177,0.27,0.236
			s0.292,0.089,0.506,0.089h0.253v0.574h-3.432v-0.574H24.5c0.313,0,0.519-0.025,0.618-0.075c0.146-0.068,0.249-0.178,0.313-0.328
			c0.036-0.082,0.055-0.294,0.055-0.636v-3.992H24.303z"/>
		<path fill="#8F1E1C" d="M37.414,15.494v-0.567c0.342,0,0.645-0.042,0.909-0.128c0.265-0.085,0.554-0.234,0.868-0.446h0.54v1.142
			c0.569-0.451,1.044-0.754,1.422-0.909s0.757-0.232,1.135-0.232c0.779,0,1.443,0.305,1.992,0.916
			c0.55,0.611,0.824,1.406,0.824,2.386c0,1.084-0.313,1.973-0.937,2.666c-0.569,0.638-1.304,0.957-2.201,0.957
			c-0.446,0-0.866-0.084-1.258-0.253c-0.282-0.119-0.608-0.331-0.978-0.636v2.249c0,0.337,0.009,0.536,0.027,0.595
			c0.022,0.086,0.068,0.16,0.137,0.219s0.155,0.098,0.26,0.116c0.077,0.014,0.337,0.021,0.779,0.021v0.574h-3.521v-0.574h0.308
			c0.314,0,0.519-0.024,0.611-0.072c0.094-0.048,0.163-0.122,0.209-0.222c0.027-0.078,0.041-0.314,0.041-0.711v-7.089H37.414z
			 M39.731,16.198v2.352c0,0.31,0.019,0.54,0.055,0.69c0.055,0.232,0.16,0.442,0.317,0.629s0.37,0.346,0.642,0.479
			c0.271,0.132,0.554,0.198,0.85,0.198c0.591,0,1.104-0.223,1.539-0.67s0.651-1.124,0.651-2.03c0-0.848-0.18-1.503-0.539-1.965
			s-0.785-0.694-1.276-0.694c-0.318,0-0.664,0.084-1.037,0.253S40.159,15.86,39.731,16.198z"/>
		<path fill="#8F1E1C" d="M47.969,12.192h0.485v2.324h2.03V15.2h-2.03v4.122c0,0.351,0.031,0.602,0.092,0.752
			c0.063,0.15,0.167,0.273,0.314,0.369c0.148,0.096,0.313,0.144,0.496,0.144c0.433,0,0.911-0.194,1.436-0.581v0.663
			c-0.598,0.406-1.203,0.608-1.815,0.608c-0.347,0-0.661-0.078-0.941-0.232c-0.281-0.155-0.473-0.337-0.575-0.547
			s-0.154-0.574-0.154-1.094V15.2h-1.196v-0.574c0.384-0.086,0.694-0.221,0.93-0.403s0.427-0.419,0.573-0.711
			C47.758,13.22,47.877,12.78,47.969,12.192z"/>
		<path fill="#8F1E1C" d="M57.334,19.349l0.438,0.355c-0.333,0.396-0.655,0.711-0.968,0.943c-0.312,0.232-0.606,0.396-0.885,0.489
			s-0.604,0.14-0.978,0.14c-0.67,0-1.239-0.137-1.709-0.41c-0.538-0.314-0.95-0.725-1.237-1.23s-0.431-1.103-0.431-1.791
			c0-0.72,0.139-1.335,0.417-1.846s0.666-0.913,1.166-1.207c0.498-0.294,1.076-0.441,1.732-0.441c0.487,0,0.911,0.076,1.271,0.229
			s0.665,0.382,0.916,0.689c0.251,0.307,0.433,0.658,0.547,1.053c0.063,0.232,0.101,0.532,0.109,0.9h-4.833
			c-0.014,0.224-0.021,0.391-0.021,0.5c0,0.576,0.101,1.088,0.301,1.538c0.2,0.45,0.466,0.781,0.797,0.993
			c0.33,0.212,0.705,0.318,1.124,0.318c0.355,0,0.699-0.083,1.032-0.25S56.86,19.832,57.334,19.349z M56.459,16.587
			c-0.068-0.419-0.165-0.729-0.29-0.93c-0.126-0.201-0.304-0.36-0.533-0.479c-0.23-0.119-0.489-0.178-0.776-0.178
			s-0.556,0.059-0.807,0.178s-0.459,0.283-0.626,0.492c-0.166,0.209-0.311,0.515-0.434,0.916H56.459z"/>
		<path fill="#8F1E1C" d="M58.394,14.516l2.591-0.103v4.402c0,0.387,0.054,0.695,0.161,0.923c0.106,0.228,0.271,0.404,0.492,0.53
			c0.221,0.125,0.479,0.188,0.775,0.188c0.364,0,0.778-0.098,1.24-0.294c0.463-0.196,0.925-0.488,1.385-0.875v-3.186
			c0-0.337-0.025-0.558-0.075-0.663s-0.139-0.189-0.267-0.253s-0.328-0.096-0.602-0.096h-0.499v-0.574l2.591-0.103v5.1
			c0,0.328,0.027,0.555,0.082,0.68s0.136,0.214,0.242,0.267c0.107,0.052,0.323,0.079,0.646,0.079h0.212v0.574l-2.27,0.116v-1.265
			c-0.624,0.497-1.169,0.84-1.634,1.029s-0.937,0.284-1.415,0.284c-0.355,0-0.664-0.048-0.927-0.144
			c-0.262-0.096-0.492-0.239-0.689-0.431c-0.199-0.191-0.351-0.421-0.455-0.69s-0.157-0.556-0.157-0.861v-3.11
			c0-0.278-0.025-0.473-0.075-0.584s-0.133-0.201-0.25-0.267c-0.115-0.066-0.274-0.099-0.475-0.099h-0.629V14.516z"/>
		<path fill="#8F1E1C" d="M68.278,15.494v-0.567c0.332-0.027,0.627-0.082,0.886-0.166c0.259-0.083,0.555-0.22,0.887-0.409h0.511
			v1.292c0.323-0.396,0.699-0.711,1.128-0.943s0.813-0.349,1.155-0.349c0.337,0,0.604,0.08,0.8,0.239s0.294,0.353,0.294,0.581
			c0,0.164-0.064,0.309-0.195,0.434c-0.129,0.125-0.285,0.188-0.468,0.188c-0.082,0-0.152-0.011-0.212-0.034s-0.146-0.073-0.26-0.15
			c-0.251-0.164-0.46-0.246-0.629-0.246c-0.228,0-0.479,0.096-0.752,0.287c-0.347,0.246-0.617,0.488-0.813,0.725v3.151
			c0,0.273,0.015,0.459,0.044,0.557c0.03,0.098,0.079,0.182,0.147,0.253s0.152,0.122,0.253,0.154s0.275,0.048,0.526,0.048h0.226
			v0.574h-3.534v-0.574h0.294c0.278,0,0.46-0.025,0.547-0.075c0.118-0.068,0.206-0.163,0.264-0.284
			c0.057-0.121,0.085-0.338,0.085-0.653v-4.033H68.278z"/>
	</g>
	<g>
		<path fill="#1C1411" d="M14.933,18.776l0.438,0.355c-0.856,1.144-1.885,1.716-3.083,1.716c-0.935,0-1.723-0.333-2.365-0.998
			s-0.964-1.493-0.964-2.481c0-0.661,0.149-1.254,0.447-1.781c0.299-0.526,0.714-0.936,1.244-1.227
			c0.531-0.292,1.141-0.438,1.829-0.438c0.784,0,1.438,0.192,1.962,0.578s0.786,0.773,0.786,1.166c0,0.209-0.062,0.372-0.185,0.485
			s-0.262,0.171-0.417,0.171c-0.082,0-0.162-0.021-0.239-0.062s-0.157-0.107-0.239-0.198c-0.036-0.041-0.103-0.168-0.198-0.383
			c-0.123-0.264-0.219-0.442-0.287-0.533c-0.142-0.182-0.315-0.326-0.523-0.431c-0.207-0.105-0.438-0.157-0.693-0.157
			c-0.388,0-0.746,0.107-1.076,0.321c-0.331,0.214-0.593,0.53-0.787,0.947c-0.193,0.417-0.29,0.915-0.29,1.494
			c0,0.898,0.239,1.611,0.718,2.14c0.415,0.456,0.909,0.684,1.483,0.684c0.265,0,0.532-0.044,0.804-0.133
			c0.271-0.089,0.527-0.22,0.769-0.393C14.242,19.494,14.531,19.213,14.933,18.776z"/>
		<path fill="#1C1411" d="M19.622,13.922c0.67,0,1.25,0.139,1.74,0.417c0.489,0.278,0.876,0.684,1.158,1.217
			s0.424,1.142,0.424,1.825s-0.145,1.292-0.434,1.825c-0.29,0.533-0.684,0.94-1.184,1.22c-0.498,0.28-1.095,0.42-1.787,0.42
			c-1.103,0-1.932-0.344-2.484-1.032c-0.555-0.688-0.831-1.497-0.831-2.427c0-0.679,0.144-1.282,0.431-1.808
			s0.689-0.934,1.207-1.224C18.379,14.067,18.966,13.922,19.622,13.922z M19.567,14.585c-0.52,0-0.959,0.205-1.319,0.615
			c-0.456,0.51-0.684,1.253-0.684,2.229c0,0.939,0.193,1.654,0.581,2.146c0.351,0.438,0.827,0.656,1.429,0.656
			c0.388,0,0.732-0.103,1.036-0.308c0.303-0.205,0.548-0.532,0.734-0.981s0.28-0.977,0.28-1.583c0-0.592-0.101-1.124-0.301-1.593
			c-0.155-0.374-0.389-0.664-0.7-0.872C20.312,14.689,19.959,14.585,19.567,14.585z"/>
		<path fill="#1C1411" d="M23.99,15.078v-0.581c0.343-0.032,0.643-0.089,0.898-0.169s0.548-0.216,0.877-0.405h0.508v1.148
			c0.52-0.41,0.925-0.686,1.217-0.827c0.446-0.214,0.873-0.321,1.278-0.321c0.278,0,0.551,0.051,0.816,0.154
			c0.268,0.103,0.481,0.229,0.643,0.379c0.162,0.15,0.3,0.355,0.414,0.615c0.479-0.424,0.922-0.721,1.33-0.892
			c0.407-0.171,0.821-0.256,1.24-0.256c0.401,0,0.756,0.083,1.063,0.25c0.309,0.167,0.531,0.375,0.67,0.625
			c0.14,0.25,0.209,0.618,0.209,1.101v3.172c0,0.333,0.007,0.526,0.021,0.581c0.022,0.086,0.071,0.168,0.146,0.246
			c0.074,0.078,0.159,0.132,0.254,0.164c0.096,0.032,0.272,0.048,0.53,0.048h0.218v0.574h-3.425v-0.574
			c0.392-0.004,0.646-0.033,0.762-0.085c0.117-0.052,0.203-0.138,0.26-0.256c0.058-0.119,0.086-0.351,0.086-0.697v-3.015
			c0-0.383-0.034-0.647-0.103-0.793s-0.19-0.268-0.366-0.366c-0.177-0.098-0.395-0.147-0.654-0.147c-0.324,0-0.665,0.086-1.021,0.26
			c-0.475,0.237-0.849,0.503-1.123,0.8v3.261c0,0.314,0.015,0.521,0.045,0.619c0.029,0.098,0.079,0.18,0.15,0.246
			c0.07,0.066,0.152,0.112,0.246,0.137c0.093,0.025,0.319,0.038,0.68,0.038v0.574h-3.363v-0.574h0.191
			c0.269,0,0.459-0.032,0.57-0.096c0.112-0.064,0.2-0.162,0.264-0.294c0.046-0.105,0.068-0.321,0.068-0.649v-2.912
			c0-0.428-0.033-0.718-0.1-0.868s-0.192-0.278-0.38-0.383s-0.406-0.157-0.657-0.157c-0.297,0-0.597,0.073-0.897,0.219
			c-0.448,0.214-0.859,0.495-1.233,0.841v3.514c0,0.209,0.028,0.363,0.086,0.461c0.057,0.098,0.146,0.177,0.27,0.236
			s0.292,0.089,0.506,0.089h0.253v0.574h-3.432v-0.574h0.184c0.313,0,0.519-0.025,0.618-0.075c0.146-0.068,0.249-0.178,0.313-0.328
			c0.036-0.082,0.055-0.294,0.055-0.636v-3.992H23.99z"/>
		<path fill="#1C1411" d="M37.102,15.064v-0.567c0.342,0,0.645-0.042,0.909-0.128c0.265-0.085,0.554-0.234,0.868-0.446h0.54v1.142
			c0.569-0.451,1.044-0.754,1.422-0.909s0.757-0.232,1.135-0.232c0.779,0,1.443,0.305,1.992,0.916
			c0.55,0.611,0.824,1.406,0.824,2.386c0,1.084-0.313,1.973-0.937,2.666c-0.569,0.638-1.304,0.957-2.201,0.957
			c-0.446,0-0.866-0.084-1.258-0.253c-0.282-0.119-0.608-0.331-0.978-0.636v2.249c0,0.337,0.009,0.536,0.027,0.595
			c0.022,0.086,0.068,0.16,0.137,0.219s0.155,0.098,0.26,0.116c0.077,0.014,0.337,0.021,0.779,0.021v0.574h-3.521v-0.574h0.308
			c0.314,0,0.519-0.024,0.611-0.072c0.094-0.048,0.163-0.122,0.209-0.222c0.027-0.078,0.041-0.314,0.041-0.711v-7.089H37.102z
			 M39.419,15.768v2.352c0,0.31,0.019,0.54,0.055,0.69c0.055,0.232,0.16,0.442,0.317,0.629s0.37,0.346,0.642,0.479
			c0.271,0.132,0.554,0.198,0.85,0.198c0.591,0,1.104-0.223,1.539-0.67s0.651-1.124,0.651-2.03c0-0.848-0.18-1.503-0.539-1.965
			s-0.785-0.694-1.276-0.694c-0.318,0-0.664,0.084-1.037,0.253S39.847,15.431,39.419,15.768z"/>
		<path fill="#1C1411" d="M47.656,11.762h0.485v2.324h2.03v0.684h-2.03v4.122c0,0.351,0.031,0.602,0.092,0.752
			c0.063,0.15,0.167,0.273,0.314,0.369c0.148,0.096,0.313,0.144,0.496,0.144c0.433,0,0.911-0.194,1.436-0.581v0.663
			c-0.598,0.406-1.203,0.608-1.815,0.608c-0.347,0-0.661-0.078-0.941-0.232c-0.281-0.155-0.473-0.337-0.575-0.547
			s-0.154-0.574-0.154-1.094V14.77h-1.196v-0.574c0.384-0.086,0.694-0.221,0.93-0.403s0.427-0.419,0.573-0.711
			C47.445,12.79,47.564,12.35,47.656,11.762z"/>
		<path fill="#1C1411" d="M57.021,18.919l0.438,0.355c-0.333,0.396-0.655,0.711-0.968,0.943c-0.312,0.232-0.606,0.396-0.885,0.489
			s-0.604,0.14-0.978,0.14c-0.67,0-1.239-0.137-1.709-0.41c-0.538-0.314-0.95-0.725-1.237-1.23s-0.431-1.103-0.431-1.791
			c0-0.72,0.139-1.335,0.417-1.846s0.666-0.913,1.166-1.207c0.498-0.294,1.076-0.441,1.732-0.441c0.487,0,0.911,0.076,1.271,0.229
			s0.665,0.382,0.916,0.689c0.251,0.307,0.433,0.658,0.547,1.053c0.063,0.232,0.101,0.532,0.109,0.9h-4.833
			c-0.014,0.224-0.021,0.391-0.021,0.5c0,0.576,0.101,1.088,0.301,1.538c0.2,0.45,0.466,0.781,0.797,0.993
			c0.33,0.212,0.705,0.318,1.124,0.318c0.355,0,0.699-0.083,1.032-0.25S56.548,19.402,57.021,18.919z M56.146,16.158
			c-0.068-0.419-0.165-0.729-0.29-0.93c-0.126-0.201-0.304-0.36-0.533-0.479c-0.23-0.119-0.489-0.178-0.776-0.178
			s-0.556,0.059-0.807,0.178s-0.459,0.283-0.626,0.492c-0.166,0.209-0.311,0.515-0.434,0.916H56.146z"/>
		<path fill="#1C1411" d="M58.081,14.086l2.591-0.103v4.402c0,0.387,0.054,0.695,0.161,0.923c0.106,0.228,0.271,0.404,0.492,0.53
			c0.221,0.125,0.479,0.188,0.775,0.188c0.364,0,0.778-0.098,1.24-0.294c0.463-0.196,0.925-0.488,1.385-0.875v-3.186
			c0-0.337-0.025-0.558-0.075-0.663s-0.139-0.189-0.267-0.253s-0.328-0.096-0.602-0.096h-0.499v-0.574l2.591-0.103v5.1
			c0,0.328,0.027,0.555,0.082,0.68s0.136,0.214,0.242,0.267c0.107,0.052,0.323,0.079,0.646,0.079h0.212v0.574l-2.27,0.116v-1.265
			c-0.624,0.497-1.169,0.84-1.634,1.029s-0.937,0.284-1.415,0.284c-0.355,0-0.664-0.048-0.927-0.144
			c-0.262-0.096-0.492-0.239-0.689-0.431c-0.199-0.191-0.351-0.421-0.455-0.69s-0.157-0.556-0.157-0.861v-3.11
			c0-0.278-0.025-0.473-0.075-0.584s-0.133-0.201-0.25-0.267c-0.115-0.066-0.274-0.099-0.475-0.099h-0.629V14.086z"/>
		<path fill="#1C1411" d="M67.966,15.064v-0.567c0.332-0.027,0.627-0.082,0.886-0.166c0.259-0.083,0.555-0.22,0.887-0.409h0.511
			v1.292c0.323-0.396,0.699-0.711,1.128-0.943s0.813-0.349,1.155-0.349c0.337,0,0.604,0.08,0.8,0.239s0.294,0.353,0.294,0.581
			c0,0.164-0.064,0.309-0.195,0.434c-0.129,0.125-0.285,0.188-0.468,0.188c-0.082,0-0.152-0.011-0.212-0.034s-0.146-0.073-0.26-0.15
			c-0.251-0.164-0.46-0.246-0.629-0.246c-0.228,0-0.479,0.096-0.752,0.287c-0.347,0.246-0.617,0.488-0.813,0.725v3.151
			c0,0.273,0.015,0.459,0.044,0.557c0.03,0.098,0.079,0.182,0.147,0.253s0.152,0.122,0.253,0.154s0.275,0.048,0.526,0.048h0.226
			v0.574h-3.534v-0.574h0.294c0.278,0,0.46-0.025,0.547-0.075c0.118-0.068,0.206-0.163,0.264-0.284
			c0.057-0.121,0.085-0.338,0.085-0.653v-4.033H67.966z"/>
	</g>
</g>
</svg>
