<?xml version="1.0" encoding="utf-8"?>
<!-- Generator: Adobe Illustrator 15.0.0, SVG Export Plug-In . SVG Version: 6.00 Build 0)  -->
<!DOCTYPE svg PUBLIC "-//W3C//DTD SVG 1.1//EN" "http://www.w3.org/Graphics/SVG/1.1/DTD/svg11.dtd">
<svg version="1.1" id="Calque_1" xmlns="http://www.w3.org/2000/svg" xmlns:xlink="http://www.w3.org/1999/xlink" x="0px" y="0px"
	 width="11.897px" height="6.445px" viewBox="0 0 11.897 6.445" enable-background="new 0 0 11.897 6.445" xml:space="preserve">
<g>
	<g>
		<path fill="#F69E1D" d="M11.647,0.496c0,3.147-2.552,5.699-5.699,5.699c-3.146,0-5.698-2.552-5.698-5.699l0,0
			c0-0.243,0.12-0.246,0.268-0.246h10.833c0.22,0,0.296,0.055,0.296,0.278V0.496z"/>
		<path fill="#8F1E1C" d="M5.948,6.445C2.668,6.445,0,3.776,0,0.496C0,0,0.39,0,0.518,0h10.833c0.132,0,0.53,0,0.546,0.496h0h0
			c0,0.007,0,0.014,0,0.021C11.884,3.787,9.215,6.445,5.948,6.445z M0.504,0.5C0.53,3.53,2.962,5.945,5.948,5.945
			c2.993,0,5.437-2.435,5.449-5.428c0-0.001,0-0.001,0-0.002V0.501c-0.012,0-0.027-0.001-0.046-0.001H0.518
			C0.514,0.5,0.509,0.5,0.504,0.5z"/>
	</g>
</g>
<polygon fill="#1C1411" points="8.367,1.966 7.933,1.561 5.942,3.702 3.951,1.561 3.517,1.966 5.942,4.573 "/>
</svg>
