<?xml version="1.0" encoding="utf-8"?>
<!-- Generator: Adobe Illustrator 15.0.0, SVG Export Plug-In . SVG Version: 6.00 Build 0)  -->
<!DOCTYPE svg PUBLIC "-//W3C//DTD SVG 1.1//EN" "http://www.w3.org/Graphics/SVG/1.1/DTD/svg11.dtd">
<svg version="1.1" id="Calque_1" xmlns="http://www.w3.org/2000/svg" xmlns:xlink="http://www.w3.org/1999/xlink" x="0px" y="0px"
	 width="84.337px" height="16.446px" viewBox="0 0 84.337 16.446" enable-background="new 0 0 84.337 16.446" xml:space="preserve">
<g>
	<path fill="#1C1411" d="M2.847,4.748C2.832,5.493,2.825,6.342,2.825,7.294c0,1.354,0.025,2.902,0.075,4.646
		c0.05,1.744,0.089,2.735,0.118,2.975c0.028,0.24,0.064,0.45,0.107,0.629c0.071,0.294,0.183,0.595,0.333,0.902H0.58
		c0.215-0.437,0.345-0.865,0.392-1.283c0.046-0.42,0.084-0.836,0.113-1.252c0.057-0.845,0.086-1.98,0.086-3.405
		c0-1.726-0.029-3.301-0.086-4.727L0.967,2.825c-0.043-1.088-0.215-1.862-0.516-2.32C0.329,0.333,0.179,0.168,0,0.011h3.341
		c0.422,0.974,0.87,1.941,1.343,2.9l1.461,2.857l3.137,5.769c0.007-0.451,0.011-0.935,0.011-1.45V8.411
		c0-3.581-0.219-6.166-0.655-7.756C8.551,0.362,8.458,0.147,8.357,0.011L11.591,0c-0.358,0.716-0.584,2.732-0.677,6.048
		c-0.015,0.516-0.021,1.01-0.021,1.482l0.011,0.902v4.383c0,1.855,0.014,3.065,0.043,3.631h-1.74l-3.115-5.801L2.847,4.748z"/>
	<path fill="#1C1411" d="M22.279,10.936l0.054-4.125c0-2.886-0.107-4.73-0.322-5.532c-0.101-0.387-0.22-0.669-0.36-0.849
		c-0.14-0.179-0.252-0.318-0.338-0.419h3.523L24.61,0.312c-0.322,0.473-0.501,1.006-0.537,1.601
		c-0.036,0.595-0.063,1.196-0.081,1.805c-0.018,0.609-0.034,1.214-0.048,1.815c-0.015,1.01-0.021,2.138-0.021,3.384v1.311
		c0,2.313-0.373,3.972-1.117,4.974c-0.738,0.975-1.941,1.461-3.609,1.461c-3.23,0-4.838-2.073-4.823-6.22l0.011-8.046
		c0-1.131-0.201-1.926-0.602-2.385h4.071c-0.423,0.509-0.634,1.232-0.634,2.17c0,0.544-0.004,1.103-0.011,1.676l-0.043,3.438
		c-0.007,0.566-0.011,1.149-0.011,1.751c0,2.155,0.064,3.522,0.193,4.099s0.286,1.025,0.473,1.348
		c0.43,0.73,1.067,1.096,1.912,1.096c1.303,0,2.105-0.952,2.406-2.857C22.232,12.164,22.279,11.565,22.279,10.936z"/>
	<path fill="#1C1411" d="M29.229,3.738c-0.029,1.046-0.043,2.127-0.043,3.244c0,1.525,0.025,3.169,0.075,4.931
		c0.05,1.762,0.087,2.763,0.113,3.002c0.025,0.24,0.059,0.45,0.102,0.629c0.079,0.33,0.208,0.631,0.387,0.902h-2.997
		c0.272-0.387,0.435-0.802,0.489-1.246c0.054-0.443,0.095-0.873,0.124-1.289c0.057-0.845,0.086-1.98,0.086-3.405
		c0-1.726-0.029-3.301-0.086-4.727L27.36,2.825c-0.043-1.088-0.219-1.862-0.526-2.32c-0.115-0.172-0.262-0.336-0.44-0.494h4.2
		c0.279,1.225,0.626,2.524,1.042,3.899l1.955,6.241l2.997-10.141h4.189c-0.351,0.308-0.58,0.623-0.688,0.945
		c-0.158,0.494-0.247,1.067-0.269,1.719l-0.075,1.901c-0.093,2.228-0.14,4.204-0.14,5.93c0,2.894,0.132,4.73,0.397,5.511
		c0.05,0.144,0.114,0.287,0.193,0.43h-3.384c0.193-0.379,0.302-0.789,0.328-1.23c0.025-0.439,0.048-1.047,0.07-1.82
		c0.086-2.542,0.129-4.394,0.129-5.554c0-1.912-0.018-3.333-0.054-4.265l-3.953,12.869l-2.095-6.596L29.229,3.738z"/>
	<path fill="#1C1411" d="M51.229,12.472c0.193,0.266,0.29,0.648,0.29,1.149s-0.021,0.901-0.064,1.198s-0.111,0.567-0.204,0.811
		c-0.215,0.545-0.498,0.816-0.849,0.816h-8.701c0.551-0.293,0.917-0.576,1.096-0.849c0.336-0.509,0.505-1.153,0.505-1.934
		c-0.007-1.912-0.011-3.642-0.011-5.188v-5.65c0-1.067-0.168-1.84-0.505-2.32c-0.129-0.172-0.283-0.336-0.462-0.494h8.078
		c0.486,0.172,0.82,0.773,0.999,1.805c0.05,0.287,0.075,0.566,0.075,0.838c0,0.559-0.082,1.003-0.247,1.332l-0.58-1.16
		c-0.387-0.759-0.942-1.268-1.665-1.525c-0.401-0.143-0.853-0.215-1.354-0.215c-0.502,0-0.859,0.016-1.074,0.048
		s-0.38,0.109-0.494,0.231c-0.187,0.208-0.279,0.604-0.279,1.187c0,0.584,0.014,0.988,0.043,1.214
		c0.028,0.226,0.097,0.41,0.204,0.553c0.222,0.279,0.69,0.419,1.407,0.419h3.373c-0.165,0.416-0.333,0.709-0.505,0.881
		c-0.344,0.344-0.81,0.516-1.396,0.516c-0.229,0-0.448-0.025-0.655-0.075c-0.387-0.093-0.727-0.14-1.021-0.14S46.697,5.946,46.508,6
		s-0.338,0.138-0.445,0.252c-0.187,0.201-0.279,0.563-0.279,1.085v5.124c0,1.347,0.075,2.146,0.226,2.396
		c0.15,0.251,0.333,0.399,0.548,0.445c0.215,0.047,0.572,0.07,1.074,0.07c0.501,0,0.956-0.071,1.364-0.215
		c0.408-0.143,0.75-0.344,1.026-0.602c0.275-0.258,0.502-0.564,0.682-0.918C50.882,13.282,51.058,12.895,51.229,12.472z"/>
	<path fill="#1C1411" d="M57.847,6.241c-0.831,0-1.246,0.491-1.246,1.472c0,4.067,0.067,6.464,0.204,7.187
		c0.078,0.438,0.179,0.763,0.301,0.978l0.322,0.569h-3.813c0.229-0.544,0.363-0.999,0.403-1.364
		c0.039-0.365,0.072-0.755,0.102-1.171c0.057-0.845,0.086-1.98,0.086-3.405c0-1.726-0.029-3.301-0.086-4.727l-0.118-2.954
		c-0.028-0.745-0.093-1.264-0.193-1.558c-0.157-0.465-0.415-0.884-0.773-1.257h5.683c1.732,0,2.986,0.172,3.76,0.516
		c0.816,0.358,1.225,0.971,1.225,1.837c0,0.759-0.283,1.472-0.849,2.138c-0.53,0.616-1.225,1.106-2.084,1.472
		c0.107,2.75,0.97,5.39,2.589,7.917c0.694,1.096,1.403,1.948,2.127,2.557h-4.028c-0.702-0.959-1.351-2.904-1.944-5.833
		c-0.201-1.017-0.332-1.862-0.393-2.535c-0.061-0.673-0.111-1.08-0.15-1.219s-0.102-0.252-0.188-0.338
		C58.609,6.334,58.298,6.241,57.847,6.241z M60.322,4.324c0.197-0.211,0.337-0.438,0.42-0.682c0.082-0.243,0.123-0.478,0.123-0.704
		s-0.031-0.451-0.092-0.677s-0.181-0.424-0.359-0.596c-0.395-0.387-1.082-0.58-2.063-0.58c-0.365,0-0.66,0.015-0.887,0.043
		c-0.225,0.029-0.402,0.107-0.531,0.236c-0.223,0.215-0.333,0.763-0.333,1.644c0,0.773,0.082,1.268,0.247,1.482
		c0.293,0.38,0.737,0.569,1.332,0.569c0.594,0,1.051-0.07,1.369-0.209S60.125,4.535,60.322,4.324z"/>
	<path fill="#1C1411" d="M70.146,0.011c-0.266,0.666-0.419,1.334-0.462,2.003c-0.043,0.67-0.075,1.245-0.097,1.724
		c-0.021,0.48-0.039,0.978-0.054,1.493c-0.021,1.203-0.032,2.299-0.032,3.287c0,4.054,0.15,6.539,0.451,7.455
		c0.05,0.158,0.114,0.315,0.193,0.473H66.44c0.222-0.486,0.354-0.928,0.397-1.321s0.082-0.862,0.118-1.407
		c0.086-1.124,0.129-2.42,0.129-3.889c0-1.468-0.004-2.472-0.011-3.013c-0.008-0.541-0.018-1.069-0.032-1.584
		c-0.05-2.514-0.2-4.11-0.451-4.791l-0.15-0.43H70.146z"/>
	<path fill="#1C1411" d="M80.588,16.446c0.093-0.451,0.14-0.811,0.14-1.08c0-0.268-0.005-0.471-0.017-0.606
		c-0.01-0.136-0.025-0.28-0.043-0.435s-0.039-0.326-0.064-0.516s-0.048-0.41-0.069-0.661c-0.165-1.712-0.749-3.118-1.751-4.222
		c-0.444-0.487-0.924-0.857-1.439-1.112c-0.516-0.254-0.939-0.381-1.273-0.381c-0.332,0-0.589,0.021-0.768,0.064
		c-0.401,1.203-0.602,2.46-0.602,3.771c0,1.16,0.061,2.027,0.183,2.6c0.193,0.859,0.49,1.723,0.892,2.589h-3.212
		c0.172-0.43,0.258-1.333,0.258-2.712s0.104-2.668,0.312-3.868c0.207-1.199,0.479-2.268,0.811-3.207
		c0.334-0.938,0.705-1.76,1.117-2.465c0.412-0.705,0.824-1.321,1.236-1.848c0.411-0.526,0.8-0.978,1.165-1.354
		s0.669-0.707,0.913-0.994h3.384c-0.308,0.351-0.462,0.842-0.462,1.472c0,0.287,0.047,0.756,0.14,1.407l0.269,1.955
		c0.98,6.761,1.858,10.628,2.632,11.602H80.588z M75.743,6.359c0.279-0.107,0.573-0.161,0.881-0.161s0.585,0.021,0.833,0.064
		c0.246,0.043,0.492,0.115,0.735,0.215c0.522,0.201,0.96,0.52,1.311,0.956c-0.351-1.84-0.565-2.965-0.645-3.373l-0.376-1.88
		l-0.612,0.73C77.011,3.942,76.302,5.092,75.743,6.359z"/>
</g>
</svg>
